<!-- Generated by IcoMoon.io -->
<svg version="1.1" xmlns="http://www.w3.org/2000/svg" width="32" height="32" viewBox="0 0 32 32">
<title>thumbs</title>
<path fill="#defffe" d="M16.427 3.33h1.765v7.561h-1.765v-7.561z"></path>
<path fill="#04bfbf" d="M8.392 13.422h-4.022c-0.842 0-1.526-0.685-1.526-1.526s0.685-1.526 1.526-1.526h4.022c0.355 0 0.701 0.126 0.975 0.354 0.133 0.111 0.15 0.308 0.040 0.44s-0.307 0.15-0.44 0.040c-0.162-0.135-0.366-0.209-0.575-0.209h-4.022c-0.497 0-0.901 0.404-0.901 0.901s0.404 0.901 0.901 0.901h4.022c0.116 0 0.23-0.023 0.338-0.067 0.16-0.065 0.342 0.011 0.408 0.171s-0.011 0.342-0.171 0.408c-0.184 0.076-0.378 0.114-0.576 0.114z"></path>
<path fill="#04bfbf" d="M14.523 8.331h-10.044c-0.842 0-1.526-0.685-1.526-1.526s0.685-1.526 1.526-1.526h10.044c0.842 0 1.526 0.685 1.526 1.526s-0.685 1.526-1.526 1.526zM4.479 5.903c-0.497 0-0.901 0.404-0.901 0.901s0.404 0.901 0.901 0.901h10.044c0.497 0 0.901-0.404 0.901-0.901s-0.404-0.901-0.901-0.901h-10.044z"></path>
<path fill="#004358" d="M21.181 16.845c-0.93-1.247-1.478-2.362-1.628-3.314-0.009-0.058-0.056-0.102-0.116-0.11-0.389-0.052-0.701 0.054-0.927 0.317-0.368 0.429-0.454 1.225-0.218 2.026 0.166 0.563 0.603 1.133 0.791 1.359h0.404c0.173 0 0.313 0.14 0.313 0.313s-0.14 0.313-0.313 0.313h-4.431c-0.312 0-0.566 0.254-0.566 0.566s0.254 0.566 0.566 0.566c0.129 0 0.245 0.079 0.291 0.2s0.014 0.257-0.081 0.344c-0.092 0.085-0.333 0.369-0.333 0.647 0 0.312 0.254 0.566 0.566 0.566 0.137 0 0.258 0.089 0.298 0.22s-0.008 0.272-0.121 0.35c-0.13 0.091-0.495 0.414-0.462 0.691 0.034 0.283 0.285 0.496 0.585 0.496 0.134 0 0.253 0.085 0.296 0.212s0.001 0.267-0.105 0.348c-0.108 0.085-0.392 0.364-0.392 0.63 0 0.312 0.254 0.566 0.566 0.566h2.761c1.305 0 2.616-0.285 3.805-0.825v-4.017c0-0.66-0.549-1.283-1.034-1.834-0.194-0.221-0.378-0.429-0.513-0.627z"></path>
<path fill="#004358" d="M30.375 10.381h-20.525c-0.724 0-1.313 0.589-1.313 1.313v14.169c0 0.724 0.589 1.313 1.313 1.313h16.702l2.526 1.912c0.181 0.137 0.397 0.207 0.614 0.207 0.154 0 0.31-0.035 0.455-0.108 0.349-0.173 0.565-0.523 0.565-0.912v-1.144c0.566-0.147 0.976-0.656 0.976-1.269v-14.169c0-0.724-0.589-1.313-1.312-1.313zM23.353 23.522c0 0.12-0.069 0.23-0.177 0.282-1.319 0.634-2.789 0.969-4.252 0.969h-2.761c-0.656 0-1.191-0.534-1.191-1.191 0-0.276 0.114-0.52 0.245-0.71-0.335-0.179-0.577-0.508-0.624-0.902-0.042-0.347 0.118-0.651 0.298-0.876-0.349-0.208-0.584-0.589-0.584-1.024 0-0.269 0.096-0.508 0.207-0.696-0.385-0.197-0.649-0.599-0.649-1.060 0-0.656 0.534-1.191 1.191-1.191h3.241c-0.221-0.317-0.475-0.743-0.605-1.183-0.299-1.015-0.167-2.015 0.343-2.61 0.362-0.422 0.889-0.61 1.485-0.53 0.337 0.045 0.598 0.299 0.65 0.632 0.132 0.84 0.656 1.893 1.515 3.043 0.003 0.004 0.006 0.008 0.008 0.011 0.114 0.168 0.287 0.364 0.469 0.571 0.53 0.602 1.19 1.351 1.19 2.247v4.216z"></path>
<path fill="#bedb39" d="M25.547 24.556h-2.007c-0.448 0-0.813-0.364-0.813-0.813v-5.324c0-0.448 0.364-0.813 0.813-0.813h2.007c0.448 0 0.813 0.364 0.813 0.813v5.324c0 0.448-0.364 0.813-0.813 0.813z"></path>
<path fill="#004358" d="M1.944 17.656c-0.131 0-0.263-0.030-0.387-0.091-0.296-0.147-0.48-0.444-0.48-0.775v-1.060c-0.47-0.304-0.764-0.835-0.764-1.401v-9.956c0-0.919 0.748-1.667 1.667-1.667h14.935c0.919 0 1.667 0.748 1.667 1.667v5.149c0 0.173-0.14 0.313-0.313 0.313s-0.313-0.14-0.313-0.313v-5.149c0-0.575-0.467-1.042-1.042-1.042h-14.935c-0.575-0-1.042 0.467-1.042 1.042v9.956c0 0.403 0.225 0.762 0.588 0.938 0.108 0.052 0.176 0.161 0.176 0.281v1.242c0 0.135 0.093 0.196 0.134 0.216s0.145 0.058 0.253-0.024l2.045-1.548c0.054-0.041 0.12-0.063 0.189-0.063h3.145c0.173 0 0.313 0.14 0.313 0.313s-0.14 0.313-0.313 0.313h-3.040l-1.961 1.484c-0.154 0.117-0.337 0.176-0.522 0.176z"></path>
</svg>
