<!-- Generated by IcoMoon.io -->
<svg version="1.1" xmlns="http://www.w3.org/2000/svg" width="32" height="32" viewBox="0 0 32 32">
<title>masks_icon_188657</title>
<path d="M31.803 5.957c-0.070-0.26-0.245-0.465-0.485-0.575-0.24-0.105-0.515-0.095-0.755 0.030-2.958 1.575-6.204 2.449-9.525 2.305-0.030-0.355-0.085-0.675-0.16-0.955-0.135-0.531-0.728-0.809-1.235-0.545-0.73 0.39-1.465 0.73-2.2 1.015-1.69-0.39-3.405-1.010-5.14-1.855-0.474-0.222-1.048 0.013-1.2 0.535-0.185 0.655-0.225 1.555-0.14 2.62-3.085 0.040-6.305-0.75-9.585-2.345-0.23-0.115-0.5-0.115-0.73-0.010s-0.4 0.305-0.465 0.54c-0.87 3.105 1.47 11.895 5.060 16.625 1.695 2.235 3.47 3.365 5.315 3.365 0.005 0 0.005 0 0.005 0 2.045-0.15 4.040-1.505 5.79-3.94 1.63 2.080 3.35 3.135 5.13 3.135 2.205-0.16 4.345-1.725 6.19-4.52 2.988-4.506 4.977-12.239 4.13-15.425zM23.503 19.927c-1-1-2.565-1.13-3.715-0.31l-0.58-0.815c1.55-1.105 3.655-0.93 5 0.42l-0.705 0.705zM23.638 13.502l-0.705-0.705c1.385-1.39 3.64-1.39 5.030 0l-0.71 0.705c-0.995-0.995-2.615-0.995-3.615 0zM10.528 25.707c-1.845 0-3.46-1.615-4.49-2.97-3.54-4.67-5.525-12.83-4.935-15.575 3.4 1.63 6.75 2.425 9.97 2.37 2.924 0 6.242-0.946 8.88-2.345 0.674 3.143-1.475 10.992-4.23 14.73-1.17 1.705-2.975 3.63-5.195 3.79z"></path>
<path d="M9.042 13.609c-0.67-0.67-1.563-1.041-2.518-1.044-0.951 0.004-1.844 0.375-2.513 1.044l0.707 0.707c0.482-0.481 1.125-0.749 1.807-0.751 0.686 0.003 1.329 0.27 1.811 0.751l0.707-0.707z"></path>
<path d="M17.039 13.609c-1.387-1.387-3.644-1.387-5.031 0l0.707 0.707c0.998-0.997 2.62-0.997 3.617 0l0.707-0.707z"></path>
<path d="M10.127 20.879c-0.749-0.069-1.485-0.678-2.186-1.81l-0.85 0.527c0.888 1.433 1.851 2.178 2.945 2.279 0.083 0.008 0.166 0.011 0.249 0.011 1.124 0 2.303-0.695 3.596-2.115l-0.74-0.673c-1.146 1.26-2.158 1.859-3.013 1.781z"></path>
</svg>
