<svg xmlns="http://www.w3.org/2000/svg" width="30" height="30">
  <path d="M29.17 16.569a14.008 14.008 0 1 1-28.016 0 14.008 14.008 0 1 1 28.017 0z" style="stroke-width:1.02777779;stroke-opacity:1;marker:none;visibility:visible;display:inline;overflow:visible;enable-background:accumulate" transform="matrix(.97297 0 0 .97297 330.508 -68.73)"/>
  <path d="M345.296 957.89v11.863M357.16 969.753h-1.71" style="stroke-width:1px;stroke-linecap:butt;stroke-linejoin:miter;stroke-opacity:1" transform="translate(0 -1022.362)"/>
  <path d="M345.296 981.616v-2.018" style="stroke-width:.99999994px;stroke-linecap:butt;stroke-linejoin:miter;stroke-opacity:1" transform="translate(0 -1022.362)"/>
  <path d="M333.433 969.753h11.863" style="stroke-width:1px;stroke-linecap:butt;stroke-linejoin:miter;stroke-opacity:1" transform="translate(0 -1022.362)"/>
  <path d="m15 1025.992-11.242 9.923h2.248v12.818h6.746v-7.565h4.65v7.565h6.592v-12.818h2.248L15 1025.992z" style="font-size:16px;fill:none;stroke:none" transform="translate(0 -1022.362)"/>
  <path d="m15.028 1026.095-.045.047c-.477.38-2.529 2.136-3.773 5.31-.886 2.26-1.348 5.235-.563 8.93-.085 0-3.07.095-1.369 7.774.002.099 0 .38 0 .38l.03-.213c.024.105.036.197.061.304 0 0 .046-.893.092-1.338.087-.85.163-1.707.35-2.541.137-.612.274-1.238.562-1.795.05-.097.106-.201.198-.259.189-.119.654-.136.654-.136.1.303.22.617.335.928.208.566.429 1.14.7 1.734l.03.062h2.511v3.347h.562v-3.347h2.51l.03-.062c.364-.852.68-1.768.944-2.708 1.588-.408 1.765 6.116 1.765 6.116 1.967-8.277-1.278-8.246-1.278-8.246.315-1.746.439-3.554.289-5.309-.296-3.468-1.64-6.737-4.534-8.93l-.06-.047zm-3.65 5.477 7.362.03c.376 1.11.598 2.283.7 3.483.24 2.818-.233 5.778-1.11 8.397h-2.967v-3.164H14.8v3.164h-3.027c-1.928-5.122-1.493-9.083-.396-11.911zm3.696 2.343a1.93 1.93 0 0 0-1.932 1.932c0 1.07.863 1.932 1.932 1.932 1.07 0 1.947-.863 1.947-1.932 0-1.07-.878-1.932-1.947-1.932zm0 .67c.696 0 1.263.566 1.263 1.262 0 .696-.567 1.263-1.263 1.263a1.252 1.252 0 0 1-1.247-1.263c0-.696.551-1.263 1.247-1.263z" style="font-size:medium;font-style:normal;font-variant:normal;font-weight:400;font-stretch:normal;text-indent:0;text-align:start;text-decoration:none;line-height:normal;letter-spacing:normal;word-spacing:normal;text-transform:none;direction:ltr;block-progression:tb;writing-mode:lr-tb;text-anchor:start;baseline-shift:baseline;color:#ffffff;fill:#3f51b5;fill-opacity:1;stroke:none;stroke-width:.40000001;marker:none;visibility:visible;display:inline;overflow:visible;enable-background:accumulate;font-family:Sans;-inkscape-font-specification:Sans" transform="translate(0 -1022.362)"/>
</svg>
